<svg width="20" height="20" viewBox="0 0 20 20" fill="none" xmlns="http://www.w3.org/2000/svg">
<g clip-path="url(#clip0_157_640)">
<path d="M12.0002 19.1249C12.1564 18.9686 12.2442 18.7567 12.2442 18.5357C12.2442 18.3148 12.1564 18.1028 12.0002 17.9466L2.88434 8.8699C2.49738 8.48299 2.19041 8.02365 1.98097 7.51811C1.77152 7.01257 1.6637 6.47073 1.66367 5.92352C1.66359 4.81839 2.10253 3.75848 2.88392 2.97698C3.66532 2.19548 4.72516 1.75639 5.83029 1.75631C6.93543 1.75623 7.99533 2.19517 8.77684 2.97656L17.6035 11.7674C18.0661 12.2375 18.3242 12.8713 18.3216 13.5308C18.319 14.1903 18.0559 14.8221 17.5896 15.2885C17.1233 15.7549 16.4916 16.0181 15.8321 16.0209C15.1726 16.0237 14.5387 15.7657 14.0685 15.3032L5.24184 6.5124C5.08996 6.35385 5.00517 6.14278 5.00517 5.92323C5.00517 5.70368 5.08996 5.4926 5.24184 5.33406C5.39811 5.17784 5.61003 5.09007 5.831 5.09007C6.05197 5.09007 6.2639 5.17784 6.42017 5.33406L14.2827 13.1607C14.4398 13.3125 14.6503 13.3965 14.8688 13.3946C15.0873 13.3927 15.2963 13.3051 15.4509 13.1506C15.6054 12.9961 15.693 12.7871 15.6949 12.5686C15.6968 12.3501 15.6128 12.1396 15.461 11.9824L7.5985 4.15573C7.36635 3.92354 7.09074 3.73935 6.78739 3.61369C6.48405 3.48803 6.15893 3.42335 5.83059 3.42335C5.50225 3.42335 5.17712 3.48803 4.87378 3.61369C4.57044 3.73935 4.29482 3.92354 4.06267 4.15573C3.60811 4.63208 3.35449 5.26521 3.35449 5.92365C3.35449 6.58208 3.60811 7.21521 4.06267 7.69156L12.8902 16.4816C13.6749 17.2466 14.7295 17.6716 15.8254 17.6646C16.9213 17.6575 17.9703 17.219 18.7452 16.444C19.52 15.6691 19.9584 14.62 19.9652 13.5241C19.9721 12.4282 19.5469 11.3737 18.7818 10.5891L9.95517 1.79823C8.86115 0.704212 7.37735 0.089599 5.83017 0.089599C4.283 0.0895989 2.79919 0.704212 1.70517 1.79823C0.611153 2.89225 -0.00346012 4.37605 -0.00346019 5.92323C-0.00346025 7.4704 0.611152 8.95421 1.70517 10.0482L10.8185 19.1249C10.8959 19.2028 10.988 19.2645 11.0894 19.3067C11.1908 19.3489 11.2995 19.3706 11.4093 19.3706C11.5191 19.3706 11.6279 19.3489 11.7293 19.3067C11.8307 19.2645 11.9227 19.2028 12.0002 19.1249Z" fill="white"/>
</g>
<defs>
<clipPath id="clip0_157_640">
<rect width="20" height="20" fill="white" transform="translate(20) rotate(90)"/>
</clipPath>
</defs>
</svg>
